<?xml version="1.0" standalone="no"?>
<!DOCTYPE svg PUBLIC "-//W3C//DTD SVG 20010904//EN"
 "http://www.w3.org/TR/2001/REC-SVG-20010904/DTD/svg10.dtd">
<svg version="1.0" xmlns="http://www.w3.org/2000/svg"
 width="512.000000pt" height="512.000000pt" viewBox="0 0 512.000000 512.000000"
 preserveAspectRatio="xMidYMid meet">

<g transform="translate(0.000000,512.000000) scale(0.100000,-0.100000)"
fill="#000000" stroke="none">
<path d="M1390 4421 c-78 -24 -148 -90 -168 -160 -7 -21 -12 -92 -12 -158 l0
-120 -114 -5 c-100 -5 -122 -9 -178 -35 -77 -36 -126 -78 -167 -141 -64 -101
-62 -32 -59 -1508 l3 -1339 26 -56 c37 -79 90 -133 167 -171 l67 -33 963 -3
963 -2 24 24 c30 31 32 55 4 90 l-20 26 -936 0 c-711 0 -946 3 -977 12 -53 16
-121 84 -135 134 -16 56 -15 2049 0 2095 18 51 55 97 102 122 l42 22 713 3
c466 2 726 -1 751 -8 70 -19 90 -44 184 -240 99 -206 119 -237 180 -279 89
-61 93 -61 734 -61 558 0 585 -1 622 -19 50 -26 97 -81 110 -128 16 -58 15
-1453 -1 -1507 -16 -53 -81 -118 -134 -134 -26 -7 -106 -12 -210 -12 -137 0
-174 -3 -192 -16 -29 -20 -30 -76 -1 -105 20 -20 29 -21 222 -17 194 3 204 4
258 29 79 37 133 90 171 167 l33 67 3 1339 c3 1476 5 1407 -59 1508 -41 64
-90 105 -169 142 l-65 31 -292 3 -293 4 0 120 c0 66 -5 138 -12 159 -15 51
-69 114 -122 142 l-41 22 -980 2 c-539 1 -991 -2 -1005 -6z m-190 -825 l0
-234 -123 -3 c-113 -4 -128 -6 -185 -35 l-62 -31 0 162 c0 182 11 238 59 296
50 61 100 79 214 79 l97 0 0 -234z m2957 213 c24 -11 57 -37 73 -57 58 -70 60
-91 60 -588 l0 -453 -49 26 c-28 14 -83 30 -125 36 l-74 11 -4 345 c-4 381 -4
381 -69 456 -19 21 -56 49 -84 61 -45 21 -65 24 -187 24 l-138 0 0 80 0 80
277 0 c260 0 279 -1 320 -21z"/>
<path d="M1690 2464 c-211 -55 -385 -234 -435 -445 -48 -207 12 -417 164 -569
151 -150 340 -207 549 -164 337 69 547 405 462 738 -29 115 -73 189 -165 281
-86 87 -161 131 -270 160 -74 19 -231 19 -305 -1z m355 -168 c240 -118 332
-397 211 -634 -14 -26 -38 -62 -54 -81 l-29 -35 -25 55 c-14 30 -44 75 -67 99
-41 43 -41 44 -22 64 38 40 61 107 61 178 0 207 -212 340 -398 247 -104 -52
-156 -136 -155 -249 1 -69 16 -114 57 -168 l25 -34 -35 -30 c-18 -16 -48 -59
-66 -95 l-32 -66 -33 38 c-182 211 -111 574 138 701 93 47 126 54 241 51 100
-3 112 -6 183 -41z m-128 -241 c35 -23 63 -74 63 -115 0 -62 -54 -126 -110
-130 -60 -5 -82 1 -116 33 -71 65 -55 179 31 219 45 21 93 18 132 -7z m11
-421 c61 -30 102 -89 102 -147 0 -35 -2 -37 -52 -52 -93 -27 -300 -12 -323 25
-13 22 19 104 56 141 63 63 135 74 217 33z"/>
<path d="M2846 2159 c-32 -25 -35 -70 -6 -99 19 -19 33 -20 525 -20 l504 0 21
22 c27 29 25 64 -5 93 l-24 25 -494 0 c-485 0 -495 0 -521 -21z"/>
<path d="M2846 1699 c-32 -25 -35 -70 -6 -99 19 -19 33 -20 525 -20 l504 0 21
22 c27 29 25 64 -5 93 l-24 25 -494 0 c-485 0 -495 0 -521 -21z"/>
<path d="M3171 804 c-27 -35 -26 -59 4 -89 23 -24 30 -25 148 -25 116 0 125 1
145 23 27 29 28 71 2 97 -18 18 -33 20 -149 20 -128 0 -130 0 -150 -26z"/>
</g>
</svg>
